<svg width="58" height="49" viewBox="0 0 58 49" fill="none" xmlns="http://www.w3.org/2000/svg">
  <path d="M42.5263 7.39403C42.3505 7.14651 42.1846 7.15482 42.0286 7.41895C41.5857 8.17812 40.8674 8.64658 40.1823 9.13996C38.6793 10.2131 37.1614 11.2729 35.6584 12.3494C34.7908 12.9707 33.905 13.5687 33.0938 14.2548C31.4531 15.5838 33.2033 18.3447 35.2122 17.3264C38.0937 15.2582 41.2108 13.3644 43.8866 11.042C44.9168 9.72968 43.1252 8.50039 42.5263 7.39403ZM34.975 16.5024C33.6478 17.0855 32.7753 15.1137 34.1107 14.5189C35.4162 14.0073 36.2357 15.8878 34.975 16.5024Z" fill="#0074D9"/>
  <path d="M40.7561 5.07499C40.922 5.54179 40.6698 6.03682 40.6101 6.50695C39.9117 5.75442 39.1071 4.92215 38.8301 3.92045C39.6944 3.6696 40.3165 4.41383 40.7561 5.07499Z" fill="#0074D9"/>
  <path d="M31.0866 0.360481C31.2342 0.244197 31.4018 0.154492 31.6423 0C31.702 0.0149509 31.8812 -1.96355e-07 31.9426 0.0880437C32.5431 0.892067 33.1237 1.70772 33.7043 2.52503C33.7342 2.56656 33.7392 2.67952 33.7159 2.69115C33.3676 3.00014 31.5726 1.36219 31.0849 1.10304C30.6486 0.779105 30.6536 0.692722 31.0866 0.360481Z" fill="#0074D9"/>
  <path d="M26.9587 1.06484C27.39 0.46016 27.3883 0.46016 28.0038 0.898718C29.384 1.89544 30.7526 2.81907 32.1195 3.84736C31.9171 4.12478 31.4178 4.77431 31.0313 4.46034C30.4225 4.18624 29.8253 3.11975 29.1584 3.85068C28.4384 4.60487 27.8313 4.72946 26.9686 4.24439C26.4428 3.95201 26.2536 4.18126 25.9948 4.54008C24.785 6.22787 23.5684 7.91122 22.3453 9.59015C21.194 11.4357 19.701 13.0704 17.7451 14.0654C20.7394 9.67653 23.9063 5.40889 26.9587 1.06484Z" fill="#0074D9"/>
  <path d="M22.0654 0.961807C22.2761 0.541522 22.4503 -0.0448835 23.0342 0.348822C23.5153 0.642855 24.0296 0.885391 24.5372 1.13789C24.7645 1.25086 24.7844 1.37379 24.6367 1.57313C24.1905 2.18279 23.7426 2.79246 23.3195 3.41707C23.1072 3.73104 22.8385 3.7111 22.5847 3.56326C22.145 3.31075 21.9808 3.54332 21.7983 3.8955C20.8926 5.6597 19.9852 7.4239 19.0412 9.16816C17.8402 11.3194 16.2377 13.2132 14.8027 15.2083C17.1385 10.4174 19.6418 5.70953 22.0654 0.961807Z" fill="#0074D9"/>
  <path d="M44.5465 15.1452H44.3939C43.0707 15.1209 41.785 15.5858 40.7825 16.4509C40.2672 16.8736 39.8525 17.4061 39.5687 18.0096C39.2848 18.6131 39.139 19.2724 39.1418 19.9394C39.1383 20.474 39.2339 21.0046 39.4238 21.5043H16.5127C16.6519 21.2812 16.7418 21.0308 16.7765 20.77L17.1082 18.2782C17.1726 17.7923 17.0419 17.3007 16.7449 16.9111C16.7234 16.8812 16.6985 16.8546 16.6769 16.8263C22.1198 13.1717 27.3271 9.10339 32.7567 5.43046C33.6807 4.77595 34.6279 4.15466 35.5221 3.46526C35.9501 3.13302 36.1856 3.26924 36.4411 3.63138C37.2706 4.81083 38.1183 5.98697 38.9461 7.17473C39.0148 7.28144 39.0569 7.40309 39.069 7.52949C39.081 7.65588 39.0626 7.78332 39.0153 7.90112C38.9681 8.01893 38.8933 8.12366 38.7972 8.20654C38.7012 8.28942 38.5867 8.34803 38.4633 8.37744C38.4384 8.37744 37.3801 9.15987 37.1943 9.29277C36.1989 10.0015 35.1997 10.7114 34.1966 11.4224C32.123 12.7514 29.9913 14.3079 31.0845 17.0157C31.8128 18.853 34.0307 19.5889 35.8539 18.8696C38.1531 17.2815 40.5801 15.5771 42.8627 13.9142C43.2443 13.6352 43.4931 13.6136 43.7801 14.0405C44.0289 14.406 44.2844 14.7781 44.5465 15.1452Z" fill="#0074D9"/>
  <path d="M1.41007 37.9868V25.86H0V23.3482H1.41007V22.6655C1.40554 21.6957 1.65737 20.742 2.13999 19.9012C2.62142 19.049 3.31825 18.3386 4.16053 17.8413C4.96012 17.3862 5.61816 17.1431 6.13463 17.1121C6.65221 17.0805 7.02712 17.0656 7.26268 17.0656C7.79738 17.0652 8.33136 17.1046 8.86021 17.1835L15.2768 18.0307L14.9451 20.5225C10.1674 19.8968 7.64534 19.5834 7.37881 19.5823C6.67432 19.5823 6.1103 19.7152 5.68672 19.981C4.82409 20.5458 4.39333 21.2911 4.39444 22.217V23.3466H5.80451V25.865H4.39444V37.9918L1.41007 37.9868Z" fill="#0074D9"/>
  <path d="M5.24023 25.8667V23.3483H17.9076V25.8667H5.24023ZM6.4164 36.4568V33.681L9.77734 33.0863C10.7678 32.9427 11.7378 32.6823 12.6671 32.3105C13.3871 31.9971 13.7476 31.5496 13.7488 30.9682V30.4981C13.7503 30.3096 13.7113 30.123 13.6343 29.951C13.5572 29.779 13.4441 29.6256 13.3025 29.5014C12.9704 29.2149 12.5409 29.0674 12.1031 29.0894H10.9286C9.91005 29.0894 9.40077 29.5994 9.40077 30.6194V31.7955H6.4164V30.8536C6.41596 30.2911 6.52628 29.734 6.74105 29.2142C6.95582 28.6944 7.27082 28.2221 7.66803 27.8244C8.06524 27.4266 8.53687 27.1112 9.05593 26.8961C9.575 26.681 10.1313 26.5706 10.6931 26.571H12.3387C13.4793 26.547 14.587 26.9545 15.4408 27.7123C15.8494 28.052 16.1774 28.4785 16.4009 28.961C16.6244 29.4434 16.7379 29.9696 16.7331 30.5014V30.9715C16.7331 32.4467 15.8401 33.6095 14.054 34.4601C13.049 34.9313 11.9906 35.2788 10.9021 35.495L16.7298 37.8489L15.7925 40.2294L6.4164 36.4568Z" fill="#0074D9"/>
  <path d="M23.6428 35.4684V37.9868C22.0602 37.7509 20.8265 37.1114 19.9418 36.0681C19.057 35.0249 18.6146 33.7424 18.6146 32.2208V30.2273C18.6146 28.5019 19.0222 27.0505 19.8373 25.8733H17.4385V23.3483H24.3014V25.8667C23.5482 25.8833 22.9095 26.2521 22.3853 26.973C21.8611 27.694 21.599 28.6198 21.599 29.7506V32.6925C21.599 33.5398 21.7931 34.1876 22.1863 34.6328C22.5605 35.0719 23.0753 35.3672 23.6428 35.4684Z" fill="#0074D9"/>
  <path d="M33.9543 37.9868V34.9966C33.9585 34.3998 33.73 33.8249 33.3173 33.3942C32.9046 32.9636 32.3403 32.7112 31.7446 32.6909C31.5991 33.976 30.9874 35.1629 30.0256 36.0262C29.0638 36.8895 27.8189 37.369 26.5274 37.3738H25.0012V34.8571H26.0579C26.9183 34.8571 27.5957 34.5747 28.09 34.0099C28.5759 33.4673 28.8406 32.7618 28.8316 32.0331V31.656C28.8458 30.9242 28.5758 30.2154 28.0784 29.6791C27.5774 29.1254 26.8962 28.8485 26.0347 28.8485H25.0012V25.8583H23.835V23.3483H38.3587V25.8667H36.9403V37.9935L33.9543 37.9868ZM33.9543 25.86H27.9822V26.566C29.0732 26.9021 30.0335 27.5683 30.731 28.4731C31.1174 28.9793 31.4044 29.5543 31.5771 30.1675C32.3957 30.1532 33.207 30.3235 33.951 30.6659L33.9543 25.86Z" fill="#0074D9"/>
  <path d="M47.309 37.9868L39.0593 34.1046V32.5264C39.0614 31.5012 39.3731 30.5005 39.9534 29.6559C40.5473 28.7621 41.4232 28.1336 42.5811 27.7704L47.3057 26.3335V25.8633H37.8848V23.3483H51.7051V25.8667H50.295V37.9935L47.309 37.9868ZM47.309 28.9731L43.5947 30.0961C42.5607 30.4095 42.0436 31.0607 42.0436 32.0497V32.661L47.309 35.1528V28.9731Z" fill="#0074D9"/>
  <path d="M52.6437 37.9868V25.86H51.2337V23.3483H52.6437C52.6437 22.2043 52.2909 21.279 51.5854 20.5724C51.257 20.2315 50.8624 19.9616 50.4259 19.7793C49.9894 19.597 49.5202 19.5062 49.0472 19.5126H44.6296C44.1872 19.5126 43.966 19.6538 43.966 19.9362C43.966 20.2186 44.1872 20.3598 44.6296 20.3598H47.4016C47.7814 20.3593 48.1576 20.4339 48.5086 20.5793C48.8596 20.7246 49.1786 20.9379 49.4472 21.2069C49.7157 21.4758 49.9287 21.7952 50.0739 22.1467C50.219 22.4982 50.2935 22.8749 50.2931 23.2553V23.8201H47.307V23.119C47.3162 23.0549 47.3103 22.9896 47.2899 22.9282C47.2694 22.8668 47.235 22.811 47.1893 22.7652C47.1436 22.7194 47.0878 22.6849 47.0265 22.6644C46.9652 22.644 46.8999 22.6381 46.8359 22.6473H44.394C43.5316 22.6722 42.685 22.4118 41.9853 21.9064C41.6701 21.6867 41.4141 21.3922 41.2404 21.0493C41.0667 20.7063 40.9807 20.3256 40.9899 19.9411C40.9887 19.5413 41.0775 19.1463 41.2499 18.7857C41.4222 18.425 41.6736 18.1079 41.9853 17.858C42.6551 17.2843 43.5128 16.9784 44.394 16.9992H49.0506C50.7552 17.0001 52.3932 17.6626 53.6204 18.8475C54.8475 20.0324 55.5683 21.6474 55.6314 23.3533H57.0415V25.8717H55.6314V37.9985L52.6437 37.9868Z" fill="#0074D9"/>
  <path d="M34.987 45.9925C34.987 46.7831 34.7575 47.4233 34.2984 47.913C33.8444 48.3975 33.2374 48.6398 32.4774 48.6398C31.7123 48.6398 31.1027 48.3975 30.6487 47.913C30.1948 47.4284 29.9678 46.7882 29.9678 45.9925C29.9678 45.2019 30.1948 44.5643 30.6487 44.0797C31.1078 43.59 31.7174 43.3452 32.4774 43.3452C33.2425 43.3452 33.8521 43.5875 34.306 44.072C34.76 44.5566 34.987 45.1968 34.987 45.9925ZM31.5669 44.8448C31.3424 45.1254 31.2302 45.5079 31.2302 45.9925C31.2302 46.4771 31.3424 46.8622 31.5669 47.1478C31.7913 47.4284 32.0948 47.5687 32.4774 47.5687C32.8599 47.5687 33.1634 47.4284 33.3879 47.1478C33.6123 46.8622 33.7245 46.4771 33.7245 45.9925C33.7245 45.5079 33.6123 45.1254 33.3879 44.8448C33.1634 44.5592 32.8599 44.4163 32.4774 44.4163C32.0948 44.4163 31.7913 44.5592 31.5669 44.8448Z" fill="#00D965"/>
  <path d="M39.3125 48.5863H38.1954V46.2756C38.1954 46.0461 38.1418 45.8726 38.0347 45.7553C37.9276 45.6329 37.7771 45.5717 37.5833 45.5717C37.3792 45.5717 37.2084 45.6533 37.0706 45.8165C36.938 45.9747 36.8717 46.2144 36.8717 46.5357V48.5863H35.7546V44.7071H36.8717V45.3651C36.9686 45.1509 37.1165 44.9825 37.3155 44.8601C37.5195 44.7326 37.7618 44.6688 38.0424 44.6688C38.4402 44.6688 38.7514 44.7887 38.9758 45.0284C39.2002 45.2631 39.3125 45.6099 39.3125 46.069V48.5863Z" fill="#00D965"/>
  <path d="M41.3483 48.5863H40.2312V43.1768H41.3483V48.5863Z" fill="#00D965"/>
  <path d="M43.4628 48.5863H42.3458V44.7071H43.4628V48.5863ZM43.3634 43.1233C43.4909 43.2508 43.5547 43.4038 43.5547 43.5824C43.5547 43.7609 43.4909 43.9139 43.3634 44.0414C43.2359 44.169 43.0828 44.2327 42.9043 44.2327C42.7258 44.2327 42.5727 44.169 42.4452 44.0414C42.3177 43.9139 42.2539 43.7609 42.2539 43.5824C42.2539 43.4038 42.3177 43.2508 42.4452 43.1233C42.5727 42.9958 42.7258 42.932 42.9043 42.932C43.0828 42.932 43.2359 42.9958 43.3634 43.1233Z" fill="#00D965"/>
  <path d="M47.9799 48.5863H46.8628V46.2756C46.8628 46.0461 46.8092 45.8726 46.7021 45.7553C46.595 45.6329 46.4445 45.5717 46.2507 45.5717C46.0467 45.5717 45.8758 45.6533 45.7381 45.8165C45.6054 45.9747 45.5391 46.2144 45.5391 46.5357V48.5863H44.4221V44.7071H45.5391V45.3651C45.6361 45.1509 45.784 44.9825 45.9829 44.8601C46.1869 44.7326 46.4292 44.6688 46.7098 44.6688C47.1076 44.6688 47.4188 44.7887 47.6432 45.0284C47.8677 45.2631 47.9799 45.6099 47.9799 46.069V48.5863Z" fill="#00D965"/>
  <path d="M51.9056 48.3644C51.6403 48.5378 51.2348 48.6245 50.689 48.6245C50.0514 48.6245 49.5541 48.4409 49.197 48.0736C48.8451 47.7013 48.6691 47.2244 48.6691 46.6429C48.6691 46.0257 48.84 45.5436 49.1817 45.1968C49.5286 44.8448 49.9545 44.6688 50.4595 44.6688C50.9798 44.6688 51.3904 44.8219 51.6913 45.1279C51.9923 45.4289 52.1428 45.8803 52.1428 46.4822C52.1428 46.5995 52.1224 46.801 52.0816 47.0866H49.8015C49.878 47.3009 50.0106 47.4666 50.1993 47.584C50.3881 47.7013 50.6151 47.7599 50.8803 47.7599C51.2731 47.7599 51.6148 47.6503 51.9056 47.4309V48.3644ZM50.5054 45.5181C50.3269 45.5181 50.1687 45.5844 50.031 45.7171C49.8933 45.8446 49.8015 46.0359 49.7556 46.2909H51.1022V46.1991C51.0665 45.7451 50.8676 45.5181 50.5054 45.5181Z" fill="#00D965"/>
</svg>